<svg width="49" height="48" viewBox="0 0 49 48" fill="none" xmlns="http://www.w3.org/2000/svg">
<ellipse cx="24.5" cy="24" rx="24.5" ry="24" fill="#FF5652"/>
<path d="M18.821 8C13.979 8 10 12.1062 10 17.1151V29.8849C10 34.8883 13.9737 39 18.821 39H31.179C36.021 39 40 34.8938 40 29.8849V17.1151C40 12.1117 36.0263 8 31.179 8H18.821ZM18.821 10.8182H31.179C34.5508 10.8182 37.2727 13.6309 37.2727 17.1151V29.8849C37.2727 33.3691 34.5508 36.1818 31.179 36.1818H18.821C15.4492 36.1818 12.7273 33.3691 12.7273 29.8849V17.1151C12.7273 13.6309 15.4492 10.8182 18.821 10.8182ZM33.054 13.9006C32.3668 13.9006 31.8182 14.4675 31.8182 15.1776C31.8182 15.8876 32.3668 16.4545 33.054 16.4545C33.7411 16.4545 34.2898 15.8876 34.2898 15.1776C34.2898 14.4675 33.7411 13.9006 33.054 13.9006ZM25 15.0455C20.4989 15.0455 16.8182 18.8489 16.8182 23.5C16.8182 28.1511 20.4989 31.9545 25 31.9545C29.5011 31.9545 33.1818 28.1511 33.1818 23.5C33.1818 18.8489 29.5011 15.0455 25 15.0455ZM25 17.8636C28.0309 17.8636 30.4545 20.3681 30.4545 23.5C30.4545 26.6319 28.0309 29.1364 25 29.1364C21.9691 29.1364 19.5455 26.6319 19.5455 23.5C19.5455 20.3681 21.9691 17.8636 25 17.8636Z" fill="#F6FFFF"/>
</svg>
