<?xml version="1.0" encoding="utf-8"?>
<!-- Generator: Adobe Illustrator 24.3.0, SVG Export Plug-In . SVG Version: 6.00 Build 0)  -->
<svg version="1.1" id="Layer_1" xmlns="http://www.w3.org/2000/svg" xmlns:xlink="http://www.w3.org/1999/xlink" x="0px" y="0px"
	 viewBox="0 0 512 512" style="enable-background:new 0 0 512 512;" xml:space="preserve">
<style type="text/css">
	.st0{fill:#A89C29;}
</style>
<path class="st0" d="M58.6,114.2L58.6,114.2c-13.2,7.7-17.7,24.6-10.1,37.8c2.5,4.3,6.1,7.8,10.4,10.2l253,142.1l12.6,7.3l43.1,24.9
	c4.5,2.6,6,8.3,3.4,12.7c-0.8,1.4-2,2.6-3.4,3.4L207.9,445c-4.1,2.3-9.4,0.9-11.7-3.2c-0.7-1.3-1.1-2.7-1.1-4.2V277.9
	c0-15.4-12.5-27.8-27.8-27.8c-4.9,0-9.7,1.3-13.9,3.7l0,0c-8.6,5-13.9,14.2-13.9,24.1v182c0,39.6,42.9,64.4,77.2,44.6l217.4-125.5
	c26.3-15.2,26.3-53.2,0-68.4l0,0L86,114.1C77.5,109.3,67.1,109.4,58.6,114.2z"/>
<path class="st0" d="M386.5,249.5c-9.9,0-19-5.2-24-13.7c-7.5-12.7-3.1-29.2,9-37.6l8-5.6c3.8-2.7,4.7-7.9,2.1-11.7
	c-0.7-1-1.6-1.9-2.7-2.5l-169.2-97c-4-2.3-9.2-1-11.5,3c-0.8,1.3-1.2,2.8-1.1,4.3v14.4c0,14.7-10.7,27.9-25.4,29.2
	c-15.3,1.4-28.9-9.9-30.3-25.3c-0.1-0.8-0.1-1.7-0.1-2.5V31.8c0-17.2,13.9-31.2,31.2-31.2c5.5,0,10.8,1.4,15.6,4.2l263.6,151.1
	c14.9,8.6,20.1,27.6,11.5,42.5c-2.3,4-5.4,7.4-9.2,10l-51.5,36C397.8,247.7,392.2,249.5,386.5,249.5z"/>
</svg>
