<svg width="226" height="54" viewBox="0 0 226 54" fill="none" xmlns="http://www.w3.org/2000/svg">
<path d="M1.4298 11.9602C-0.48617 13.0726 -0.48617 15.8831 1.48786 16.9956L27.847 31.9261L29.1824 32.6873L33.653 35.3221C34.2917 35.6734 34.2917 36.6688 33.653 37.0201L16.9898 46.7396C16.4092 47.0909 15.6545 46.681 15.6545 45.9784V29.1742C15.6545 26.9493 13.216 25.4855 11.3 26.6565C10.371 27.1249 9.84848 28.1203 9.84848 29.1742V48.3204C9.84848 52.4776 14.3191 55.0538 17.8607 53.0045L40.5041 39.8305C43.2329 38.2496 43.2329 34.2682 40.5041 32.6287L4.27474 11.9602C3.40384 11.4332 2.3007 11.4332 1.4298 11.9602Z" fill="#FF5652"/>
<path d="M35.569 26.1881C34.582 26.1881 33.5949 25.6611 33.0724 24.7243C32.3176 23.3776 32.724 21.6797 34.0014 20.8014L34.8142 20.2159C35.3367 19.8646 35.2787 19.0449 34.7561 18.7521L17.164 8.50565C16.5834 8.15434 15.8286 8.5642 15.8286 9.26682V10.7891C15.8286 12.3115 14.7255 13.7167 13.1579 13.8338C11.4161 14.0095 10.0226 12.6042 10.0226 10.9062V3.2946C10.0226 0.776897 12.6934 -0.803984 14.8997 0.42559L42.362 16.3515C44.4521 17.5225 44.5683 20.5086 42.5942 21.8553L37.2527 25.6611C36.7302 26.0124 36.1496 26.1881 35.569 26.1881Z" fill="#FF5652"/>
<path d="M51.1265 36.3614V19.0814H57.9785C59.1465 19.0814 60.1025 19.3174 60.8465 19.7894C61.5985 20.2534 62.1545 20.8494 62.5145 21.5774C62.8825 22.3054 63.0665 23.0574 63.0665 23.8334C63.0665 24.7854 62.8385 25.5934 62.3825 26.2574C61.9345 26.9214 61.3225 27.3694 60.5465 27.6014V27.0014C61.6345 27.2494 62.4585 27.7654 63.0185 28.5494C63.5865 29.3334 63.8705 30.2254 63.8705 31.2254C63.8705 32.2494 63.6745 33.1454 63.2825 33.9134C62.8905 34.6814 62.3065 35.2814 61.5305 35.7134C60.7625 36.1454 59.8105 36.3614 58.6745 36.3614H51.1265ZM54.0545 33.6374H58.3145C58.8185 33.6374 59.2705 33.5374 59.6705 33.3374C60.0705 33.1294 60.3825 32.8414 60.6065 32.4734C60.8385 32.0974 60.9545 31.6534 60.9545 31.1414C60.9545 30.6774 60.8545 30.2614 60.6545 29.8934C60.4545 29.5254 60.1625 29.2334 59.7785 29.0174C59.3945 28.7934 58.9345 28.6814 58.3985 28.6814H54.0545V33.6374ZM54.0545 25.9814H57.9425C58.3585 25.9814 58.7305 25.9014 59.0585 25.7414C59.3865 25.5814 59.6465 25.3454 59.8385 25.0334C60.0305 24.7214 60.1265 24.3374 60.1265 23.8814C60.1265 23.2814 59.9345 22.7814 59.5505 22.3814C59.1665 21.9814 58.6305 21.7814 57.9425 21.7814H54.0545V25.9814ZM66.0271 21.4334V18.7814H68.9191V21.4334H66.0271ZM66.0271 36.3614V23.4014H68.9191V36.3614H66.0271ZM77.6617 36.7214C76.3257 36.7214 75.1857 36.4254 74.2417 35.8334C73.2977 35.2334 72.5737 34.4174 72.0697 33.3854C71.5737 32.3534 71.3217 31.1854 71.3137 29.8814C71.3217 28.5534 71.5817 27.3774 72.0937 26.3534C72.6137 25.3214 73.3497 24.5134 74.3017 23.9294C75.2537 23.3374 76.3857 23.0414 77.6977 23.0414C79.1697 23.0414 80.4137 23.4134 81.4297 24.1574C82.4537 24.8934 83.1217 25.9014 83.4337 27.1814L80.5537 27.9614C80.3297 27.2654 79.9577 26.7254 79.4377 26.3414C78.9177 25.9494 78.3257 25.7534 77.6617 25.7534C76.9097 25.7534 76.2897 25.9334 75.8017 26.2934C75.3137 26.6454 74.9537 27.1334 74.7217 27.7574C74.4897 28.3814 74.3737 29.0894 74.3737 29.8814C74.3737 31.1134 74.6497 32.1094 75.2017 32.8694C75.7537 33.6294 76.5737 34.0094 77.6617 34.0094C78.4297 34.0094 79.0337 33.8334 79.4737 33.4814C79.9217 33.1294 80.2577 32.6214 80.4817 31.9574L83.4337 32.6174C83.0337 33.9374 82.3337 34.9534 81.3337 35.6654C80.3337 36.3694 79.1097 36.7214 77.6617 36.7214ZM90.7308 36.7214C89.4348 36.7214 88.3028 36.4294 87.3348 35.8454C86.3668 35.2614 85.6148 34.4574 85.0788 33.4334C84.5508 32.4014 84.2868 31.2174 84.2868 29.8814C84.2868 28.5214 84.5588 27.3294 85.1028 26.3054C85.6468 25.2814 86.4028 24.4814 87.3708 23.9054C88.3388 23.3294 89.4588 23.0414 90.7308 23.0414C92.0348 23.0414 93.1708 23.3334 94.1388 23.9174C95.1068 24.5014 95.8588 25.3094 96.3948 26.3414C96.9308 27.3654 97.1988 28.5454 97.1988 29.8814C97.1988 31.2254 96.9268 32.4134 96.3828 33.4454C95.8468 34.4694 95.0948 35.2734 94.1268 35.8574C93.1588 36.4334 92.0268 36.7214 90.7308 36.7214ZM90.7308 34.0094C91.8828 34.0094 92.7388 33.6254 93.2988 32.8574C93.8588 32.0894 94.1388 31.0974 94.1388 29.8814C94.1388 28.6254 93.8548 27.6254 93.2868 26.8814C92.7188 26.1294 91.8668 25.7534 90.7308 25.7534C89.9548 25.7534 89.3148 25.9294 88.8108 26.2814C88.3148 26.6254 87.9468 27.1094 87.7068 27.7334C87.4668 28.3494 87.3468 29.0654 87.3468 29.8814C87.3468 31.1374 87.6308 32.1414 88.1988 32.8934C88.7748 33.6374 89.6188 34.0094 90.7308 34.0094ZM99.6028 36.3614V18.7214H102.495V36.3614H99.6028ZM113.205 36.3614C112.349 36.5214 111.509 36.5894 110.685 36.5654C109.869 36.5494 109.137 36.4014 108.489 36.1214C107.841 35.8334 107.349 35.3814 107.013 34.7654C106.717 34.2054 106.561 33.6334 106.545 33.0494C106.529 32.4654 106.521 31.8054 106.521 31.0694V19.8014H109.401V30.9014C109.401 31.4214 109.405 31.8774 109.413 32.2694C109.429 32.6614 109.513 32.9814 109.665 33.2294C109.953 33.7094 110.413 33.9774 111.045 34.0334C111.677 34.0894 112.397 34.0574 113.205 33.9374V36.3614ZM104.169 25.6694V23.4014H113.205V25.6694H104.169ZM115.512 36.3614V23.4014H118.068V26.5574L117.756 26.1494C117.916 25.7174 118.128 25.3254 118.392 24.9734C118.664 24.6134 118.988 24.3174 119.364 24.0854C119.684 23.8694 120.036 23.7014 120.42 23.5814C120.812 23.4534 121.212 23.3774 121.62 23.3534C122.028 23.3214 122.424 23.3374 122.808 23.4014V26.1014C122.424 25.9894 121.98 25.9534 121.476 25.9934C120.98 26.0334 120.532 26.1734 120.132 26.4134C119.732 26.6294 119.404 26.9054 119.148 27.2414C118.9 27.5774 118.716 27.9614 118.596 28.3934C118.476 28.8174 118.416 29.2774 118.416 29.7734V36.3614H115.512ZM127.937 36.7214C127.001 36.7214 126.209 36.5454 125.561 36.1934C124.913 35.8334 124.421 35.3574 124.085 34.7654C123.757 34.1734 123.593 33.5214 123.593 32.8094C123.593 32.1854 123.697 31.6254 123.905 31.1294C124.113 30.6254 124.433 30.1934 124.865 29.8334C125.297 29.4654 125.857 29.1654 126.545 28.9334C127.065 28.7654 127.673 28.6134 128.369 28.4774C129.073 28.3414 129.833 28.2174 130.649 28.1054C131.473 27.9854 132.333 27.8574 133.229 27.7214L132.197 28.3094C132.205 27.4134 132.005 26.7534 131.597 26.3294C131.189 25.9054 130.501 25.6934 129.533 25.6934C128.949 25.6934 128.385 25.8294 127.841 26.1014C127.297 26.3734 126.917 26.8414 126.701 27.5054L124.061 26.6774C124.381 25.5814 124.989 24.7014 125.885 24.0374C126.789 23.3734 128.005 23.0414 129.533 23.0414C130.685 23.0414 131.697 23.2294 132.569 23.6054C133.449 23.9814 134.101 24.5974 134.525 25.4534C134.757 25.9094 134.897 26.3774 134.945 26.8574C134.993 27.3294 135.017 27.8454 135.017 28.4054V36.3614H132.485V33.5534L132.905 34.0094C132.321 34.9454 131.637 35.6334 130.853 36.0734C130.077 36.5054 129.105 36.7214 127.937 36.7214ZM128.513 34.4174C129.169 34.4174 129.729 34.3014 130.193 34.0694C130.657 33.8374 131.025 33.5534 131.297 33.2174C131.577 32.8814 131.765 32.5654 131.861 32.2694C132.013 31.9014 132.097 31.4814 132.113 31.0094C132.137 30.5294 132.149 30.1414 132.149 29.8454L133.037 30.1094C132.165 30.2454 131.417 30.3654 130.793 30.4694C130.169 30.5734 129.633 30.6734 129.185 30.7694C128.737 30.8574 128.341 30.9574 127.997 31.0694C127.661 31.1894 127.377 31.3294 127.145 31.4894C126.913 31.6494 126.733 31.8334 126.605 32.0414C126.485 32.2494 126.425 32.4934 126.425 32.7734C126.425 33.0934 126.505 33.3774 126.665 33.6254C126.825 33.8654 127.057 34.0574 127.361 34.2014C127.673 34.3454 128.057 34.4174 128.513 34.4174ZM137.902 21.4334V18.7814H140.794V21.4334H137.902ZM137.902 36.3614V23.4014H140.794V36.3614H137.902ZM144.148 36.3614V18.7214H147.04V36.3614H144.148ZM155.159 36.7214C153.559 36.7214 152.259 36.3614 151.259 35.6414C150.259 34.9214 149.651 33.9094 149.435 32.6054L152.387 32.1494C152.539 32.7894 152.875 33.2934 153.395 33.6614C153.915 34.0294 154.571 34.2134 155.363 34.2134C156.059 34.2134 156.595 34.0774 156.971 33.8054C157.355 33.5254 157.547 33.1454 157.547 32.6654C157.547 32.3694 157.475 32.1334 157.331 31.9574C157.195 31.7734 156.891 31.5974 156.419 31.4294C155.947 31.2614 155.223 31.0494 154.247 30.7934C153.159 30.5054 152.295 30.1974 151.655 29.8694C151.015 29.5334 150.555 29.1374 150.275 28.6814C149.995 28.2254 149.855 27.6734 149.855 27.0254C149.855 26.2174 150.067 25.5134 150.491 24.9134C150.915 24.3134 151.507 23.8534 152.267 23.5334C153.027 23.2054 153.923 23.0414 154.955 23.0414C155.963 23.0414 156.855 23.1974 157.631 23.5094C158.415 23.8214 159.047 24.2654 159.527 24.8414C160.007 25.4174 160.303 26.0934 160.415 26.8694L157.463 27.3974C157.391 26.8454 157.139 26.4094 156.707 26.0894C156.283 25.7694 155.715 25.5894 155.003 25.5494C154.323 25.5094 153.775 25.6134 153.359 25.8614C152.943 26.1014 152.735 26.4414 152.735 26.8814C152.735 27.1294 152.819 27.3414 152.987 27.5174C153.155 27.6934 153.491 27.8694 153.995 28.0454C154.507 28.2214 155.267 28.4374 156.275 28.6934C157.307 28.9574 158.131 29.2614 158.747 29.6054C159.371 29.9414 159.819 30.3454 160.091 30.8174C160.371 31.2894 160.511 31.8614 160.511 32.5334C160.511 33.8374 160.035 34.8614 159.083 35.6054C158.139 36.3494 156.831 36.7214 155.159 36.7214ZM170.255 36.3614C169.399 36.5214 168.559 36.5894 167.735 36.5654C166.919 36.5494 166.187 36.4014 165.539 36.1214C164.891 35.8334 164.399 35.3814 164.063 34.7654C163.767 34.2054 163.611 33.6334 163.595 33.0494C163.579 32.4654 163.571 31.8054 163.571 31.0694V19.8014H166.451V30.9014C166.451 31.4214 166.455 31.8774 166.463 32.2694C166.479 32.6614 166.563 32.9814 166.715 33.2294C167.003 33.7094 167.463 33.9774 168.095 34.0334C168.727 34.0894 169.447 34.0574 170.255 33.9374V36.3614ZM161.219 25.6694V23.4014H170.255V25.6694H161.219ZM172.562 36.3614V23.4014H175.118V26.5574L174.806 26.1494C174.966 25.7174 175.178 25.3254 175.442 24.9734C175.714 24.6134 176.038 24.3174 176.414 24.0854C176.734 23.8694 177.086 23.7014 177.47 23.5814C177.862 23.4534 178.262 23.3774 178.67 23.3534C179.078 23.3214 179.474 23.3374 179.858 23.4014V26.1014C179.474 25.9894 179.03 25.9534 178.526 25.9934C178.03 26.0334 177.582 26.1734 177.182 26.4134C176.782 26.6294 176.454 26.9054 176.198 27.2414C175.95 27.5774 175.766 27.9614 175.646 28.3934C175.526 28.8174 175.466 29.2774 175.466 29.7734V36.3614H172.562ZM184.987 36.7214C184.051 36.7214 183.259 36.5454 182.611 36.1934C181.963 35.8334 181.471 35.3574 181.135 34.7654C180.807 34.1734 180.643 33.5214 180.643 32.8094C180.643 32.1854 180.747 31.6254 180.955 31.1294C181.163 30.6254 181.483 30.1934 181.915 29.8334C182.347 29.4654 182.907 29.1654 183.595 28.9334C184.115 28.7654 184.723 28.6134 185.419 28.4774C186.123 28.3414 186.883 28.2174 187.699 28.1054C188.523 27.9854 189.383 27.8574 190.279 27.7214L189.247 28.3094C189.255 27.4134 189.055 26.7534 188.647 26.3294C188.239 25.9054 187.551 25.6934 186.583 25.6934C185.999 25.6934 185.435 25.8294 184.891 26.1014C184.347 26.3734 183.967 26.8414 183.751 27.5054L181.111 26.6774C181.431 25.5814 182.039 24.7014 182.935 24.0374C183.839 23.3734 185.055 23.0414 186.583 23.0414C187.735 23.0414 188.747 23.2294 189.619 23.6054C190.499 23.9814 191.151 24.5974 191.575 25.4534C191.807 25.9094 191.947 26.3774 191.995 26.8574C192.043 27.3294 192.067 27.8454 192.067 28.4054V36.3614H189.535V33.5534L189.955 34.0094C189.371 34.9454 188.687 35.6334 187.903 36.0734C187.127 36.5054 186.155 36.7214 184.987 36.7214ZM185.563 34.4174C186.219 34.4174 186.779 34.3014 187.243 34.0694C187.707 33.8374 188.075 33.5534 188.347 33.2174C188.627 32.8814 188.815 32.5654 188.911 32.2694C189.063 31.9014 189.147 31.4814 189.163 31.0094C189.187 30.5294 189.199 30.1414 189.199 29.8454L190.087 30.1094C189.215 30.2454 188.467 30.3654 187.843 30.4694C187.219 30.5734 186.683 30.6734 186.235 30.7694C185.787 30.8574 185.391 30.9574 185.047 31.0694C184.711 31.1894 184.427 31.3294 184.195 31.4894C183.963 31.6494 183.783 31.8334 183.655 32.0414C183.535 32.2494 183.475 32.4934 183.475 32.7734C183.475 33.0934 183.555 33.3774 183.715 33.6254C183.875 33.8654 184.107 34.0574 184.411 34.2014C184.723 34.3454 185.107 34.4174 185.563 34.4174ZM197.746 36.3614L193.042 23.4014H195.934L199.198 32.7974L202.45 23.4014H205.354L200.65 36.3614H197.746ZM212.451 36.7214C211.139 36.7214 209.987 36.4374 208.995 35.8694C208.003 35.3014 207.227 34.5134 206.667 33.5054C206.115 32.4974 205.839 31.3374 205.839 30.0254C205.839 28.6094 206.111 27.3814 206.655 26.3414C207.199 25.2934 207.955 24.4814 208.923 23.9054C209.891 23.3294 211.011 23.0414 212.283 23.0414C213.627 23.0414 214.767 23.3574 215.703 23.9894C216.647 24.6134 217.347 25.4974 217.803 26.6414C218.259 27.7854 218.431 29.1334 218.319 30.6854H215.451V29.6294C215.443 28.2214 215.195 27.1934 214.707 26.5454C214.219 25.8974 213.451 25.5734 212.403 25.5734C211.219 25.5734 210.339 25.9414 209.763 26.6774C209.187 27.4054 208.899 28.4734 208.899 29.8814C208.899 31.1934 209.187 32.2094 209.763 32.9294C210.339 33.6494 211.179 34.0094 212.283 34.0094C212.995 34.0094 213.607 33.8534 214.119 33.5414C214.639 33.2214 215.039 32.7614 215.319 32.1614L218.175 33.0254C217.679 34.1934 216.911 35.1014 215.871 35.7494C214.839 36.3974 213.699 36.7214 212.451 36.7214ZM207.987 30.6854V28.5014H216.903V30.6854H207.987ZM220.757 36.3614V18.7214H223.649V36.3614H220.757Z" fill="#1E1E1E"/>
</svg>
