<?xml version="1.0" encoding="utf-8"?>
<!-- Generator: Adobe Illustrator 24.3.0, SVG Export Plug-In . SVG Version: 6.00 Build 0)  -->
<svg version="1.1" id="Layer_1" xmlns="http://www.w3.org/2000/svg" xmlns:xlink="http://www.w3.org/1999/xlink" x="0px" y="0px"
	 viewBox="0 0 226 54" style="enable-background:new 0 0 226 54;" xml:space="preserve">
<style type="text/css">
	.st0{fill:#FBA518;}
	.st1{fill:#A89C29;}
</style>
<path class="st0" d="M5.8,15.1c-1.5,0.9-1.5,3.1,0,4l20.8,11.8l1.1,0.6l3.5,2.1c0.5,0.3,0.5,1.1,0,1.3l-13.1,7.7
	c-0.5,0.3-1.1,0-1.1-0.6V28.7c0-1.8-1.9-2.9-3.4-2c-0.7,0.4-1.1,1.2-1.1,2v15.1c0,3.3,3.5,5.3,6.3,3.7l17.8-10.4
	c2.1-1.2,2.1-4.4,0-5.7L8,15.1C7.4,14.7,6.5,14.7,5.8,15.1z"/>
<path class="st0" d="M32.7,26.3c-0.8,0-1.6-0.4-2-1.2c-0.6-1.1-0.3-2.4,0.7-3.1l0.6-0.5c0.4-0.3,0.4-0.9,0-1.2l-13.9-8.1
	c-0.5-0.3-1.1,0-1.1,0.6V14c0,1.2-0.9,2.3-2.1,2.4c-1.4,0.1-2.5-1-2.5-2.3v-6c0-2,2.1-3.2,3.8-2.3L38,18.6c1.6,0.9,1.7,3.3,0.2,4.3
	l-4.2,3C33.6,26.2,33.1,26.3,32.7,26.3z"/>
<g>
	<path class="st1" d="M46.7,115.1V97.8h6.9c1.2,0,2.1,0.2,2.9,0.7c0.8,0.5,1.3,1.1,1.7,1.8c0.4,0.7,0.6,1.5,0.6,2.3
		c0,1-0.2,1.8-0.7,2.4c-0.4,0.7-1.1,1.1-1.8,1.3v-0.6c1.1,0.2,1.9,0.8,2.5,1.5c0.6,0.8,0.9,1.7,0.9,2.7s-0.2,1.9-0.6,2.7
		c-0.4,0.8-1,1.4-1.8,1.8s-1.7,0.6-2.9,0.6L46.7,115.1L46.7,115.1z M49.7,112.4H54c0.5,0,1-0.1,1.4-0.3c0.4-0.2,0.7-0.5,0.9-0.9
		s0.3-0.8,0.3-1.3s-0.1-0.9-0.3-1.2c-0.2-0.4-0.5-0.7-0.9-0.9c-0.4-0.2-0.8-0.3-1.4-0.3h-4.3V112.4z M49.7,104.7h3.9
		c0.4,0,0.8-0.1,1.1-0.2c0.3-0.2,0.6-0.4,0.8-0.7c0.2-0.3,0.3-0.7,0.3-1.2c0-0.6-0.2-1.1-0.6-1.5c-0.4-0.4-0.9-0.6-1.6-0.6h-3.9
		V104.7z M61.6,100.1v-2.7h2.9v2.7H61.6z M61.6,115.1v-13h2.9v13H61.6z M73.3,115.4c-1.3,0-2.5-0.3-3.4-0.9s-1.7-1.4-2.2-2.4
		s-0.7-2.2-0.8-3.5c0-1.3,0.3-2.5,0.8-3.5s1.3-1.8,2.2-2.4c1-0.6,2.1-0.9,3.4-0.9c1.5,0,2.7,0.4,3.7,1.1s1.7,1.7,2,3l-2.9,0.8
		c-0.2-0.7-0.6-1.2-1.1-1.6s-1.1-0.6-1.8-0.6c-0.8,0-1.4,0.2-1.9,0.5c-0.5,0.4-0.8,0.8-1.1,1.5c-0.2,0.6-0.3,1.3-0.3,2.1
		c0,1.2,0.3,2.2,0.8,3c0.6,0.8,1.4,1.1,2.5,1.1c0.8,0,1.4-0.2,1.8-0.5c0.4-0.4,0.8-0.9,1-1.5l3,0.7c-0.4,1.3-1.1,2.3-2.1,3
		C76,115.1,74.7,115.4,73.3,115.4z M86.4,115.4c-1.3,0-2.4-0.3-3.4-0.9s-1.7-1.4-2.3-2.4c-0.5-1-0.8-2.2-0.8-3.6s0.3-2.6,0.8-3.6
		s1.3-1.8,2.3-2.4s2.1-0.9,3.4-0.9s2.4,0.3,3.4,0.9s1.7,1.4,2.3,2.4c0.5,1,0.8,2.2,0.8,3.5s-0.3,2.5-0.8,3.6c-0.5,1-1.3,1.8-2.3,2.4
		C88.8,115.1,87.6,115.4,86.4,115.4z M86.4,112.7c1.2,0,2-0.4,2.6-1.2c0.6-0.8,0.8-1.8,0.8-3c0-1.3-0.3-2.3-0.9-3
		c-0.6-0.8-1.4-1.1-2.6-1.1c-0.8,0-1.4,0.2-1.9,0.5s-0.9,0.8-1.1,1.5c-0.2,0.6-0.4,1.3-0.4,2.1c0,1.3,0.3,2.3,0.9,3
		C84.4,112.4,85.2,112.7,86.4,112.7z M95.2,115.1V97.4h2.9V115L95.2,115.1L95.2,115.1z M108.8,115.1c-0.9,0.2-1.7,0.2-2.5,0.2
		s-1.5-0.2-2.2-0.4c-0.6-0.3-1.1-0.7-1.5-1.4c-0.3-0.6-0.5-1.1-0.5-1.7s0-1.2,0-2V98.5h2.9v11.1c0,0.5,0,1,0,1.4s0.1,0.7,0.3,1
		c0.3,0.5,0.7,0.7,1.4,0.8c0.6,0.1,1.4,0,2.2-0.1v2.4C108.9,115.1,108.8,115.1,108.8,115.1z M99.8,104.4v-2.3h9v2.3H99.8z
		 M111.1,115.1v-13h2.6v3.2l-0.3-0.4c0.2-0.4,0.4-0.8,0.6-1.2c0.3-0.4,0.6-0.7,1-0.9c0.3-0.2,0.7-0.4,1.1-0.5s0.8-0.2,1.2-0.2
		c0.4,0,0.8,0,1.2,0v2.7c-0.4-0.1-0.8-0.1-1.3-0.1s-0.9,0.2-1.3,0.4c-0.4,0.2-0.7,0.5-1,0.8c-0.2,0.3-0.4,0.7-0.6,1.2
		c-0.1,0.4-0.2,0.9-0.2,1.4v6.6H111.1z M123.6,115.4c-0.9,0-1.7-0.2-2.4-0.5c-0.6-0.4-1.1-0.8-1.5-1.4c-0.3-0.6-0.5-1.2-0.5-2
		c0-0.6,0.1-1.2,0.3-1.7c0.2-0.5,0.5-0.9,1-1.3c0.4-0.4,1-0.7,1.7-0.9c0.5-0.2,1.1-0.3,1.8-0.5c0.7-0.1,1.5-0.3,2.3-0.4
		s1.7-0.2,2.6-0.4l-1,0.6c0-0.9-0.2-1.6-0.6-2s-1.1-0.6-2.1-0.6c-0.6,0-1.1,0.1-1.7,0.4c-0.5,0.3-0.9,0.7-1.1,1.4l-2.6-0.8
		c0.3-1.1,0.9-2,1.8-2.6c0.9-0.7,2.1-1,3.6-1c1.2,0,2.2,0.2,3,0.6c0.9,0.4,1.5,1,2,1.8c0.2,0.5,0.4,0.9,0.4,1.4s0.1,1,0.1,1.5v8
		h-2.5v-2.8l0.4,0.5c-0.6,0.9-1.3,1.6-2.1,2.1C125.7,115.2,124.7,115.4,123.6,115.4z M124.1,113.1c0.7,0,1.2-0.1,1.7-0.3
		c0.5-0.2,0.8-0.5,1.1-0.9c0.3-0.3,0.5-0.7,0.6-0.9c0.2-0.4,0.2-0.8,0.3-1.3c0-0.5,0-0.9,0-1.2l0.9,0.3c-0.9,0.1-1.6,0.3-2.2,0.4
		s-1.2,0.2-1.6,0.3c-0.4,0.1-0.8,0.2-1.2,0.3c-0.3,0.1-0.6,0.3-0.9,0.4c-0.2,0.2-0.4,0.3-0.5,0.6c-0.1,0.2-0.2,0.5-0.2,0.7
		c0,0.3,0.1,0.6,0.2,0.9c0.2,0.2,0.4,0.4,0.7,0.6C123.3,113.1,123.7,113.1,124.1,113.1z M133.5,100.1v-2.7h2.9v2.7H133.5z
		 M133.5,115.1v-13h2.9v13H133.5z M139.8,115.1V97.4h2.9V115L139.8,115.1L139.8,115.1z M150.8,115.4c-1.6,0-2.9-0.4-3.9-1.1
		s-1.6-1.7-1.8-3l3-0.5c0.2,0.6,0.5,1.1,1,1.5s1.2,0.6,2,0.6c0.7,0,1.2-0.1,1.6-0.4c0.4-0.3,0.6-0.7,0.6-1.1c0-0.3-0.1-0.5-0.2-0.7
		c-0.1-0.2-0.4-0.4-0.9-0.5s-1.2-0.4-2.2-0.6c-1.1-0.3-2-0.6-2.6-0.9s-1.1-0.7-1.4-1.2c-0.3-0.5-0.4-1-0.4-1.7
		c0-0.8,0.2-1.5,0.6-2.1s1-1.1,1.8-1.4s1.7-0.5,2.7-0.5s1.9,0.2,2.7,0.5s1.4,0.8,1.9,1.3c0.5,0.6,0.8,1.3,0.9,2l-3,0.5
		c-0.1-0.6-0.3-1-0.8-1.3c-0.4-0.3-1-0.5-1.7-0.5s-1.2,0.1-1.6,0.3c-0.4,0.2-0.6,0.6-0.6,1c0,0.2,0.1,0.5,0.3,0.6
		c0.2,0.2,0.5,0.4,1,0.5c0.5,0.2,1.3,0.4,2.3,0.6c1,0.3,1.9,0.6,2.5,0.9s1.1,0.7,1.3,1.2c0.3,0.5,0.4,1,0.4,1.7
		c0,1.3-0.5,2.3-1.4,3.1C153.8,115.1,152.5,115.4,150.8,115.4z M165.9,115.1c-0.9,0.2-1.7,0.2-2.5,0.2s-1.5-0.2-2.2-0.4
		c-0.6-0.3-1.1-0.7-1.5-1.4c-0.3-0.6-0.5-1.1-0.5-1.7s0-1.2,0-2V98.5h2.9v11.1c0,0.5,0,1,0,1.4s0.1,0.7,0.3,1
		c0.3,0.5,0.7,0.7,1.4,0.8s1.4,0,2.2-0.1L165.9,115.1L165.9,115.1z M156.8,104.4v-2.3h9v2.3H156.8z M168.2,115.1v-13h2.6v3.2
		l-0.3-0.4c0.2-0.4,0.4-0.8,0.6-1.2c0.3-0.4,0.6-0.7,1-0.9c0.3-0.2,0.7-0.4,1.1-0.5c0.4-0.1,0.8-0.2,1.2-0.2s0.8,0,1.2,0v2.7
		c-0.4-0.1-0.8-0.1-1.3-0.1s-0.9,0.2-1.3,0.4c-0.4,0.2-0.7,0.5-1,0.8c-0.2,0.3-0.4,0.7-0.6,1.2c-0.1,0.4-0.2,0.9-0.2,1.4v6.6H168.2z
		 M180.6,115.4c-0.9,0-1.7-0.2-2.4-0.5c-0.6-0.4-1.1-0.8-1.5-1.4c-0.3-0.6-0.5-1.2-0.5-2c0-0.6,0.1-1.2,0.3-1.7s0.5-0.9,1-1.3
		c0.4-0.4,1-0.7,1.7-0.9c0.5-0.2,1.1-0.3,1.8-0.5c0.7-0.1,1.5-0.3,2.3-0.4s1.7-0.2,2.6-0.4l-1,0.6c0-0.9-0.2-1.6-0.6-2
		c-0.4-0.4-1.1-0.6-2.1-0.6c-0.6,0-1.1,0.1-1.7,0.4c-0.5,0.3-0.9,0.7-1.1,1.4l-2.6-0.8c0.3-1.1,0.9-2,1.8-2.6c0.9-0.7,2.1-1,3.6-1
		c1.2,0,2.2,0.2,3,0.6c0.9,0.4,1.5,1,2,1.8c0.2,0.5,0.4,0.9,0.4,1.4s0.1,1,0.1,1.5v8h-2.5v-2.8l0.4,0.5c-0.6,0.9-1.3,1.6-2.1,2.1
		C182.7,115.2,181.8,115.4,180.6,115.4z M181.2,113.1c0.7,0,1.2-0.1,1.7-0.3c0.5-0.2,0.8-0.5,1.1-0.9c0.3-0.3,0.5-0.7,0.6-0.9
		c0.2-0.4,0.2-0.8,0.3-1.3c0-0.5,0-0.9,0-1.2l0.9,0.3c-0.9,0.1-1.6,0.3-2.2,0.4c-0.6,0.1-1.2,0.2-1.6,0.3c-0.4,0.1-0.8,0.2-1.2,0.3
		c-0.3,0.1-0.6,0.3-0.9,0.4c-0.2,0.2-0.4,0.3-0.5,0.6c-0.1,0.2-0.2,0.5-0.2,0.7c0,0.3,0.1,0.6,0.2,0.9c0.2,0.2,0.4,0.4,0.7,0.6
		C180.3,113.1,180.7,113.1,181.2,113.1z M193.4,115.1l-4.7-13h2.9l3.3,9.4l3.3-9.4h2.9l-4.7,13H193.4z M208.1,115.4
		c-1.3,0-2.5-0.3-3.5-0.9s-1.8-1.4-2.3-2.4c-0.6-1-0.8-2.2-0.8-3.5c0-1.4,0.3-2.6,0.8-3.7c0.5-1,1.3-1.9,2.3-2.4
		c1-0.6,2.1-0.9,3.4-0.9c1.3,0,2.5,0.3,3.4,0.9s1.6,1.5,2.1,2.7c0.5,1.1,0.6,2.5,0.5,4h-2.9v-1.1c0-1.4-0.3-2.4-0.7-3.1
		c-0.5-0.6-1.3-1-2.3-1c-1.2,0-2.1,0.4-2.6,1.1c-0.6,0.7-0.9,1.8-0.9,3.2c0,1.3,0.3,2.3,0.9,3s1.4,1.1,2.5,1.1
		c0.7,0,1.3-0.2,1.8-0.5s0.9-0.8,1.2-1.4l2.9,0.9c-0.5,1.2-1.3,2.1-2.3,2.7C210.5,115.1,209.3,115.4,208.1,115.4z M203.6,109.4v-2.2
		h8.9v2.2H203.6z M216.4,115.1V97.4h2.9V115L216.4,115.1L216.4,115.1z"/>
</g>
<g>
	<path d="M50.5-28.7c0-0.7,0-1.3,0-1.8s0-1-0.1-1.4c0-0.4-0.1-0.7-0.1-1s-0.1-0.5-0.1-0.6l0,0c0.2,0,0.3,0,0.5,0s0.3,0,0.5,0
		s0.4,0,0.6,0c0.3,0,0.7,0,1.2-0.1s1.2-0.1,2-0.1c0.7,0,1.4,0.1,2.1,0.3c0.6,0.2,1.2,0.5,1.6,0.8c0.5,0.4,0.8,0.8,1.1,1.3
		s0.4,1.1,0.4,1.8c0,0.6-0.1,1.1-0.2,1.5c-0.2,0.5-0.4,0.8-0.7,1.2c-0.3,0.3-0.6,0.6-1,0.8c-0.4,0.2-0.8,0.4-1.3,0.5
		c0.7,0.1,1.3,0.3,1.9,0.5c0.6,0.3,1.1,0.6,1.5,1s0.7,0.8,1,1.3c0.2,0.5,0.3,1.1,0.3,1.7c0,1.7-0.6,3.1-1.7,3.9s-2.9,1.6-5.2,1.6
		c-0.2,0-0.5,0-0.9,0c-0.3,0-0.7,0-1-0.1c-0.3,0-0.7,0-1-0.1c-0.3,0-0.6,0-0.9,0h-0.8l0,0c0-0.2,0.1-0.4,0.1-0.6
		c0-0.3,0.1-0.6,0.1-1s0.1-0.8,0.1-1.4s0-1.1,0-1.8C50.5-20.5,50.5-28.7,50.5-28.7z M52.8-25.5c0.2,0,0.4,0,0.6,0s0.4,0,0.6,0
		c0.6,0,1.1-0.1,1.5-0.2c0.5-0.2,0.9-0.4,1.2-0.7s0.6-0.7,0.8-1.2s0.3-1.1,0.3-1.7c0-0.5-0.1-1-0.2-1.5s-0.3-0.8-0.6-1.1
		s-0.6-0.5-1-0.7s-0.8-0.2-1.3-0.2c-0.3,0-0.6,0-0.8,0s-0.4,0.1-0.6,0.1c-0.2,0-0.4,0.1-0.5,0.1V-25.5z M55.1-24.5
		c-0.6,0-1,0-1.4,0.1c-0.4,0-0.7,0.1-0.9,0.1v3.8c0,1,0,1.8,0,2.4s0.1,1.1,0.1,1.5c0.3,0,0.6,0.1,0.9,0.1c0.3,0,0.6,0,0.8,0
		c1.6,0,2.7-0.3,3.4-1s1.1-1.8,1.1-3.2c0-0.6-0.1-1.1-0.3-1.5s-0.4-0.9-0.8-1.2s-0.8-0.6-1.3-0.8C56.4-24.5,55.8-24.5,55.1-24.5z"/>
	<path d="M64.7-23.6c0-0.7,0-1.3,0-1.8s0-1-0.1-1.4c0-0.4-0.1-0.7-0.1-1s-0.1-0.5-0.1-0.6l0,0h2.9l0,0c0,0.2-0.1,0.4-0.1,0.6
		c0,0.3-0.1,0.6-0.1,1S67-26,67-25.4s0,1.1,0,1.8v3c0,0.7,0,1.3,0,1.8s0,1,0.1,1.4s0.1,0.7,0.1,1s0.1,0.5,0.1,0.6l0,0h-2.9l0,0
		c0-0.2,0.1-0.4,0.1-0.6s0.1-0.6,0.1-1s0.1-0.8,0.1-1.4c0-0.5,0-1.1,0-1.8C64.7-20.6,64.7-23.6,64.7-23.6z M64.4-32.2
		c0-0.2,0-0.4,0.1-0.5s0.2-0.3,0.3-0.4c0.1-0.1,0.3-0.2,0.4-0.3c0.2-0.1,0.3-0.1,0.5-0.1s0.4,0,0.5,0.1c0.2,0.1,0.3,0.2,0.4,0.3
		s0.2,0.3,0.3,0.4s0.1,0.3,0.1,0.5c0,0.4-0.1,0.7-0.4,1s-0.6,0.4-1,0.4c-0.2,0-0.4,0-0.5-0.1c-0.2-0.1-0.3-0.2-0.4-0.3
		s-0.2-0.3-0.3-0.4S64.4-32,64.4-32.2z"/>
	<path d="M81.1-18.4l-0.9,2.2c-0.2,0.1-0.5,0.2-0.8,0.3s-0.6,0.2-0.9,0.2c-0.3,0.1-0.6,0.1-0.9,0.1s-0.6,0-0.9,0
		c-1,0-1.9-0.1-2.8-0.4s-1.6-0.7-2.2-1.3s-1.1-1.3-1.4-2.1s-0.5-1.8-0.5-2.8c0-0.9,0.2-1.8,0.5-2.6c0.4-0.8,0.9-1.5,1.5-2.1
		s1.4-1,2.3-1.4s1.8-0.5,2.8-0.5c0.5,0,1,0,1.5,0.1s1,0.2,1.4,0.3l0.9,2.1l-0.1,0.1c-0.2-0.3-0.5-0.5-0.7-0.7
		c-0.3-0.2-0.6-0.4-0.9-0.5s-0.7-0.3-1.1-0.3c-0.4-0.1-0.8-0.1-1.2-0.1c-0.6,0-1.2,0.1-1.8,0.3s-1,0.6-1.4,1s-0.7,1-0.9,1.6
		c-0.2,0.6-0.3,1.3-0.3,2.1c0,0.9,0.1,1.7,0.3,2.5c0.2,0.8,0.5,1.4,0.9,2s0.9,1,1.5,1.3s1.3,0.5,2.1,0.5c0.4,0,0.8,0,1.1-0.1
		c0.4-0.1,0.7-0.2,1.1-0.4c0.3-0.2,0.6-0.4,0.9-0.6s0.5-0.5,0.7-0.8L81.1-18.4z"/>
	<path d="M82.6-22.1c0-0.9,0.2-1.8,0.5-2.6c0.3-0.8,0.8-1.5,1.4-2.1s1.3-1,2.2-1.4s1.7-0.5,2.7-0.5c0.9,0,1.8,0.2,2.6,0.5
		s1.5,0.8,2.2,1.3c0.6,0.6,1.1,1.3,1.4,2.1c0.4,0.8,0.5,1.7,0.5,2.8c0,0.9-0.1,1.7-0.4,2.5S95-18,94.4-17.4s-1.3,1.1-2.1,1.4
		c-0.8,0.4-1.8,0.5-2.9,0.5c-0.9,0-1.8-0.2-2.6-0.5c-0.8-0.3-1.5-0.7-2.2-1.3c-0.6-0.6-1.1-1.3-1.5-2.1
		C82.7-20.2,82.6-21.1,82.6-22.1z M89.6-16.4c0.6,0,1.1-0.1,1.6-0.3c0.5-0.2,0.9-0.6,1.3-1s0.6-1,0.8-1.6c0.2-0.6,0.3-1.3,0.3-2.1
		c0-0.9-0.1-1.7-0.3-2.5s-0.5-1.4-0.9-2s-0.9-1-1.4-1.3s-1.2-0.5-2-0.5c-0.6,0-1.1,0.1-1.6,0.3s-0.9,0.6-1.3,1s-0.6,1-0.8,1.6
		c-0.2,0.6-0.3,1.3-0.3,2.1c0,0.9,0.1,1.7,0.3,2.5c0.2,0.8,0.5,1.4,0.9,2s0.9,1,1.4,1.3C88.2-16.6,88.9-16.4,89.6-16.4z"/>
	<path d="M99-29.5c0-0.7,0-1.3,0-1.8s0-1-0.1-1.4c0-0.4-0.1-0.7-0.1-1s-0.1-0.5-0.1-0.6l0,0h2.9l0,0c0,0.2-0.1,0.4-0.1,0.6
		c0,0.3-0.1,0.6-0.1,1s-0.1,0.8-0.1,1.4s0,1.1,0,1.8v8.9c0,0.7,0,1.3,0,1.8s0,1,0.1,1.4c0,0.4,0.1,0.7,0.1,1s0.1,0.5,0.1,0.6l0,0
		h-2.9l0,0c0-0.2,0.1-0.4,0.1-0.6c0-0.3,0.1-0.6,0.1-1s0.1-0.8,0.1-1.4s0-1.1,0-1.8V-29.5z"/>
	<path d="M109.6-16.5c0.2,0,0.5,0,0.7-0.1s0.5-0.2,0.7-0.4c0.2-0.2,0.4-0.3,0.7-0.5s0.4-0.4,0.6-0.6l0.1,0.1l-0.8,2
		c-0.1,0-0.2,0.1-0.4,0.2c-0.1,0.1-0.3,0.1-0.5,0.2s-0.4,0.1-0.7,0.2s-0.6,0.1-1,0.1c-1.1,0-2-0.3-2.6-0.9s-0.9-1.5-0.9-2.8v-8.5
		l-2.1,0.1v-1.1c0.3,0,0.6,0,0.9,0c0.4,0,0.7,0,1.2,0c0-0.6,0-1.1,0-1.6s0-0.8-0.1-1.2c0-0.3-0.1-0.6-0.1-0.9c0-0.2-0.1-0.4-0.1-0.6
		l0,0h2.9l0,0c0,0.2-0.1,0.4-0.1,0.6c0,0.2-0.1,0.5-0.1,0.8s-0.1,0.7-0.1,1.2s0,1,0,1.6c0.5,0,1,0,1.5,0s1,0,1.4,0s0.8,0,1-0.1
		c0.3,0,0.5,0,0.6-0.1l-0.2,1.3c-0.4,0-0.9,0-1.3,0s-0.9,0-1.4,0s-1,0-1.6,0v8.6c0,0.5,0.1,0.9,0.2,1.3s0.3,0.6,0.4,0.8
		c0.2,0.2,0.4,0.3,0.6,0.4C109.1-16.5,109.3-16.5,109.6-16.5z"/>
	<path d="M114.8-23.6c0-0.7,0-1.3,0-1.8s0-1-0.1-1.4c0-0.4-0.1-0.7-0.1-1s-0.1-0.5-0.1-0.6l0,0h2.9l0,0c-0.1,0.2-0.1,0.4-0.2,0.7
		s-0.1,0.6-0.1,1.1c0.3-0.3,0.6-0.5,1-0.8c0.3-0.2,0.7-0.5,1-0.7s0.7-0.3,1.1-0.5s0.7-0.2,1.1-0.2c0.2,0,0.4,0,0.6,0s0.3,0,0.4,0.1
		c0.1,0,0.3,0.1,0.4,0.1s0.2,0.1,0.3,0.1l-0.6,2.4h-0.2c-0.1-0.4-0.3-0.7-0.6-0.9c-0.3-0.2-0.6-0.3-1.1-0.3c-0.3,0-0.5,0-0.8,0.1
		s-0.6,0.2-0.9,0.4s-0.6,0.3-0.9,0.6s-0.6,0.4-0.8,0.7c0,0.2,0,0.5,0,0.8s0,0.6,0,0.9v3.2c0,0.7,0,1.3,0,1.8s0,1,0.1,1.4
		c0,0.4,0.1,0.7,0.1,1s0.1,0.5,0.1,0.6l0,0h-2.9l0,0c0-0.2,0.1-0.4,0.1-0.6c0-0.3,0.1-0.6,0.1-1s0.1-0.8,0.1-1.4s0-1.1,0-1.8V-23.6z
		"/>
	<path d="M123.3-19.4c0-0.7,0.1-1.2,0.4-1.7s0.6-0.9,1.1-1.2c0.4-0.3,1-0.6,1.5-0.8c0.6-0.2,1.2-0.4,1.8-0.5s1.2-0.2,1.8-0.2
		s1.1-0.1,1.6-0.1v-0.6c0-0.5-0.1-1-0.2-1.4s-0.3-0.7-0.6-1s-0.6-0.5-0.9-0.6s-0.8-0.2-1.2-0.2c-0.3,0-0.6,0-0.9,0.1
		c-0.3,0-0.6,0.1-0.9,0.2s-0.6,0.3-1,0.5c-0.3,0.2-0.7,0.5-1.1,0.8l-0.1-0.1l0.8-1.8c0.3-0.1,0.5-0.2,0.8-0.3
		c0.3-0.1,0.5-0.1,0.8-0.2c0.3,0,0.6-0.1,0.8-0.1c0.3,0,0.6,0,0.9,0c0.9,0,1.6,0.1,2.2,0.3c0.6,0.2,1.1,0.5,1.5,0.9s0.7,0.8,0.9,1.3
		s0.3,1,0.3,1.6v4.1c0,0.7,0,1.3,0,1.8s0,1,0.1,1.4s0.1,0.7,0.1,1s0.1,0.5,0.1,0.6l0,0h-2.7l0,0c0-0.1,0.1-0.3,0.1-0.4
		c0-0.2,0-0.4,0.1-0.6c-0.2,0.1-0.4,0.3-0.6,0.5c-0.2,0.2-0.5,0.3-0.8,0.4s-0.6,0.2-1,0.3s-0.8,0.1-1.2,0.1c-1.4,0-2.6-0.3-3.3-1
		C123.7-17.2,123.3-18.2,123.3-19.4z M131.6-23c-0.8,0-1.5,0.1-2.2,0.1c-0.7,0.1-1.3,0.2-1.8,0.5c-0.5,0.2-1,0.6-1.3,1.1
		s-0.5,1.1-0.5,1.8c0,1,0.2,1.7,0.7,2.2s1.2,0.8,2,0.8c0.4,0,0.8-0.1,1.1-0.2s0.6-0.3,0.9-0.4c0.3-0.2,0.5-0.4,0.6-0.6
		s0.3-0.4,0.4-0.6c0-0.3,0-0.7,0-1.1s0-0.8,0-1.3V-23H131.6z"/>
	<path d="M137.6-23.6c0-0.7,0-1.3,0-1.8s0-1-0.1-1.4c0-0.4-0.1-0.7-0.1-1s-0.1-0.5-0.1-0.6l0,0h2.9l0,0c0,0.2-0.1,0.4-0.1,0.6
		c0,0.3-0.1,0.6-0.1,1s-0.1,0.8-0.1,1.4s0,1.1,0,1.8v3c0,0.7,0,1.3,0,1.8s0,1,0.1,1.4s0.1,0.7,0.1,1s0.1,0.5,0.1,0.6l0,0h-2.9l0,0
		c0-0.2,0.1-0.4,0.1-0.6c0-0.3,0.1-0.6,0.1-1s0.1-0.8,0.1-1.4s0-1.1,0-1.8V-23.6z M137.3-32.2c0-0.2,0-0.4,0.1-0.5s0.2-0.3,0.3-0.4
		c0.1-0.1,0.3-0.2,0.4-0.3c0.2-0.1,0.3-0.1,0.5-0.1s0.4,0,0.5,0.1c0.2,0.1,0.3,0.2,0.4,0.3c0.1,0.1,0.2,0.3,0.3,0.4s0.1,0.3,0.1,0.5
		c0,0.4-0.1,0.7-0.4,1c-0.3,0.3-0.6,0.4-1,0.4c-0.2,0-0.4,0-0.5-0.1s-0.3-0.2-0.4-0.3c-0.1-0.1-0.2-0.3-0.3-0.4S137.3-32,137.3-32.2
		z"/>
	<path d="M143.7-29.5c0-0.7,0-1.3,0-1.8s0-1-0.1-1.4c0-0.4-0.1-0.7-0.1-1s-0.1-0.5-0.1-0.6l0,0h2.9l0,0c0,0.2-0.1,0.4-0.1,0.6
		c0,0.3-0.1,0.6-0.1,1s-0.1,0.8-0.1,1.4s0,1.1,0,1.8v8.9c0,0.7,0,1.3,0,1.8s0,1,0.1,1.4s0.1,0.7,0.1,1s0.1,0.5,0.1,0.6l0,0h-2.9l0,0
		c0-0.2,0.1-0.4,0.1-0.6c0-0.3,0.1-0.6,0.1-1s0.1-0.8,0.1-1.4s0-1.1,0-1.8V-29.5z"/>
	<path d="M155.4-26h-0.2c-0.1-0.2-0.2-0.4-0.3-0.6s-0.3-0.4-0.5-0.6s-0.4-0.3-0.7-0.5c-0.3-0.1-0.6-0.2-1-0.2c-0.3,0-0.5,0-0.7,0.1
		s-0.4,0.2-0.6,0.3c-0.2,0.1-0.3,0.3-0.4,0.5c-0.1,0.2-0.1,0.5-0.1,0.8c0,0.4,0.1,0.8,0.4,1.2c0.3,0.4,0.6,0.7,1,1.1
		s0.8,0.7,1.2,1.1s0.9,0.7,1.2,1.1s0.7,0.8,1,1.3s0.4,0.9,0.4,1.5c0,0.4-0.1,0.8-0.2,1.2c-0.1,0.4-0.4,0.8-0.7,1.1s-0.7,0.6-1.2,0.8
		s-1.1,0.3-1.7,0.3c-0.4,0-0.8,0-1.1-0.1s-0.7-0.2-0.9-0.3c-0.3-0.1-0.5-0.2-0.8-0.4c-0.2-0.1-0.4-0.3-0.6-0.4l0.1-2.4h0.2
		c0.1,0.4,0.2,0.7,0.4,1.1c0.2,0.3,0.4,0.6,0.6,0.8s0.5,0.4,0.8,0.5s0.7,0.2,1,0.2c0.6,0,1.1-0.2,1.5-0.5s0.5-0.8,0.5-1.3
		c0-0.4-0.1-0.8-0.4-1.2c-0.2-0.4-0.6-0.7-0.9-1.1c-0.4-0.3-0.8-0.7-1.2-1s-0.8-0.7-1.2-1.1s-0.7-0.8-0.9-1.3s-0.4-1-0.4-1.6
		c0-0.5,0.1-0.9,0.3-1.3s0.4-0.7,0.7-1s0.7-0.5,1.1-0.7c0.4-0.2,0.9-0.2,1.4-0.2c0.7,0,1.3,0.1,1.7,0.2c0.5,0.1,0.8,0.3,1.1,0.4
		L155.4-26z"/>
	<path d="M163.3-16.5c0.2,0,0.5,0,0.7-0.1s0.5-0.2,0.7-0.4c0.2-0.2,0.4-0.3,0.7-0.5s0.4-0.4,0.6-0.6l0.1,0.1l-0.8,2
		c-0.1,0-0.2,0.1-0.4,0.2c-0.1,0.1-0.3,0.1-0.5,0.2s-0.4,0.1-0.7,0.2c-0.3,0-0.6,0.1-1,0.1c-1.1,0-2-0.3-2.6-0.9s-0.9-1.5-0.9-2.8
		v-8.5l-2.1,0.1v-1.1c0.3,0,0.6,0,0.9,0c0.4,0,0.7,0,1.2,0c0-0.6,0-1.1,0-1.6s0-0.8-0.1-1.2c0-0.3-0.1-0.6-0.1-0.9
		c0-0.2-0.1-0.4-0.1-0.6l0,0h2.9l0,0c0,0.2-0.1,0.4-0.1,0.6c0,0.2-0.1,0.5-0.1,0.8s-0.1,0.7-0.1,1.2s0,1,0,1.6c0.5,0,1,0,1.5,0
		s1,0,1.4,0s0.8,0,1-0.1c0.3,0,0.5,0,0.6-0.1l-0.2,1.3c-0.4,0-0.9,0-1.3,0c-0.4,0-0.9,0-1.4,0s-1,0-1.6,0v8.6c0,0.5,0.1,0.9,0.2,1.3
		c0.1,0.3,0.3,0.6,0.4,0.8c0.2,0.2,0.4,0.3,0.6,0.4C162.8-16.5,163.1-16.5,163.3-16.5z"/>
	<path d="M168.6-23.6c0-0.7,0-1.3,0-1.8s0-1-0.1-1.4c0-0.4-0.1-0.7-0.1-1s-0.1-0.5-0.1-0.6l0,0h2.9l0,0c-0.1,0.2-0.1,0.4-0.2,0.7
		c0,0.3-0.1,0.6-0.1,1.1c0.3-0.3,0.6-0.5,1-0.8c0.3-0.2,0.7-0.5,1-0.7s0.7-0.3,1.1-0.5s0.7-0.2,1.1-0.2c0.2,0,0.4,0,0.6,0
		c0.2,0,0.3,0,0.4,0.1c0.1,0,0.3,0.1,0.4,0.1c0.1,0,0.2,0.1,0.3,0.1l-0.6,2.4H176c-0.1-0.4-0.3-0.7-0.6-0.9s-0.6-0.3-1.1-0.3
		c-0.3,0-0.5,0-0.8,0.1s-0.6,0.2-0.9,0.4s-0.6,0.3-0.9,0.6s-0.6,0.4-0.8,0.7c0,0.2,0,0.5,0,0.8s0,0.6,0,0.9v3.2c0,0.7,0,1.3,0,1.8
		s0,1,0.1,1.4s0.1,0.7,0.1,1s0.1,0.5,0.1,0.6l0,0h-2.9l0,0c0-0.2,0.1-0.4,0.1-0.6c0-0.3,0.1-0.6,0.1-1s0.1-0.8,0.1-1.4s0-1.1,0-1.8
		L168.6-23.6L168.6-23.6z"/>
	<path d="M177.1-19.4c0-0.7,0.1-1.2,0.4-1.7c0.3-0.5,0.6-0.9,1.1-1.2c0.4-0.3,1-0.6,1.5-0.8c0.6-0.2,1.2-0.4,1.8-0.5
		s1.2-0.2,1.8-0.2s1.1-0.1,1.6-0.1v-0.6c0-0.5-0.1-1-0.2-1.4s-0.3-0.7-0.6-1s-0.6-0.5-0.9-0.6s-0.8-0.2-1.2-0.2
		c-0.3,0-0.6,0-0.9,0.1c-0.3,0-0.6,0.1-0.9,0.2c-0.3,0.1-0.6,0.3-1,0.5c-0.3,0.2-0.7,0.5-1.1,0.8l-0.1-0.1l0.8-1.8
		c0.3-0.1,0.5-0.2,0.8-0.3c0.3-0.1,0.5-0.1,0.8-0.2s0.6-0.1,0.8-0.1c0.3,0,0.6,0,0.9,0c0.9,0,1.6,0.1,2.2,0.3
		c0.6,0.2,1.1,0.5,1.5,0.9s0.7,0.8,0.9,1.3s0.3,1,0.3,1.6v4.1c0,0.7,0,1.3,0,1.8s0,1,0.1,1.4c0,0.4,0.1,0.7,0.1,1s0.1,0.5,0.1,0.6
		l0,0H185l0,0c0-0.1,0.1-0.3,0.1-0.4c0-0.2,0-0.4,0.1-0.6c-0.2,0.1-0.4,0.3-0.6,0.5c-0.2,0.2-0.5,0.3-0.8,0.4s-0.6,0.2-1,0.3
		s-0.8,0.1-1.2,0.1c-1.4,0-2.6-0.3-3.3-1C177.5-17.2,177.1-18.2,177.1-19.4z M185.3-23c-0.8,0-1.5,0.1-2.2,0.1
		c-0.7,0.1-1.3,0.2-1.8,0.5c-0.5,0.2-1,0.6-1.3,1.1s-0.5,1.1-0.5,1.8c0,1,0.2,1.7,0.7,2.2s1.2,0.8,2,0.8c0.4,0,0.8-0.1,1.1-0.2
		s0.6-0.3,0.9-0.4c0.3-0.2,0.5-0.4,0.6-0.6s0.3-0.4,0.4-0.6c0-0.3,0-0.7,0-1.1s0-0.8,0-1.3V-23H185.3z"/>
	<path d="M192.4-28.5L192.4-28.5c0,0.1,0,0.2,0,0.2c0,0.1,0,0.2,0,0.2c0,0.3,0,0.5,0.1,0.9s0.2,0.7,0.4,1.2l3,7.1l3-7
		c0.1-0.3,0.3-0.6,0.4-1c0.1-0.4,0.2-0.7,0.2-1.1c0-0.1,0-0.2,0-0.3s0-0.1,0-0.1l0,0h2.2l0,0c-0.1,0.2-0.3,0.4-0.6,0.8
		c-0.2,0.4-0.5,0.9-0.7,1.5l-4.6,10.5H195l-4.3-9.9c-0.1-0.4-0.3-0.7-0.5-1.1c-0.2-0.3-0.3-0.6-0.5-0.9s-0.3-0.5-0.4-0.7
		s-0.2-0.3-0.2-0.3l0,0C189.1-28.5,192.4-28.5,192.4-28.5z"/>
	<path d="M208.9-15.5c-0.9,0-1.8-0.1-2.6-0.4s-1.5-0.7-2.1-1.3c-0.6-0.6-1.1-1.3-1.4-2.1c-0.3-0.8-0.5-1.8-0.5-2.8
		c0-0.9,0.2-1.8,0.5-2.6c0.3-0.8,0.8-1.5,1.3-2.1c0.6-0.6,1.2-1,1.9-1.4s1.5-0.5,2.4-0.5s1.6,0.1,2.4,0.4c0.7,0.3,1.4,0.7,1.9,1.3
		c0.5,0.6,1,1.3,1.3,2.1s0.5,1.8,0.5,2.8c-0.9,0-1.9,0-2.8,0c-0.9,0-1.9,0-2.9,0c-0.7,0-1.4,0-2.1,0c-0.7,0-1.3,0-1.8,0
		c0,0.9,0.2,1.6,0.4,2.3s0.5,1.3,0.9,1.8s0.9,0.9,1.4,1.1s1.2,0.4,1.9,0.4c0.5,0,0.9-0.1,1.4-0.2c0.4-0.1,0.8-0.3,1.2-0.5
		c0.3-0.2,0.7-0.4,0.9-0.7c0.3-0.3,0.5-0.6,0.7-0.9l0.1,0.1l-0.9,2.2c-0.4,0.2-1,0.4-1.6,0.6C210.6-15.6,209.8-15.5,208.9-15.5z
		 M207.3-23.1c0.8,0,1.7,0,2.5,0s1.6,0,2.3,0c-0.1-0.7-0.2-1.4-0.4-1.9s-0.5-1.1-0.8-1.5s-0.7-0.7-1.1-0.9s-0.9-0.3-1.5-0.3
		c-0.5,0-0.9,0.1-1.3,0.3c-0.4,0.2-0.8,0.5-1.1,0.9s-0.5,0.9-0.7,1.5s-0.3,1.2-0.3,2c0.4,0,0.8,0,1.2,0
		C206.4-23.1,206.8-23.1,207.3-23.1z"/>
	<path d="M217.3-29.5c0-0.7,0-1.3,0-1.8s0-1-0.1-1.4s-0.1-0.7-0.1-1s-0.1-0.5-0.1-0.6l0,0h2.9l0,0c0,0.2-0.1,0.4-0.1,0.6
		c0,0.3-0.1,0.6-0.1,1s-0.1,0.8-0.1,1.4s0,1.1,0,1.8v8.9c0,0.7,0,1.3,0,1.8s0,1,0.1,1.4s0.1,0.7,0.1,1s0.1,0.5,0.1,0.6l0,0H217l0,0
		c0-0.2,0.1-0.4,0.1-0.6c0-0.3,0.1-0.6,0.1-1s0.1-0.8,0.1-1.4c0-0.5,0-1.1,0-1.8L217.3-29.5L217.3-29.5z"/>
</g>
<g>
	<path d="M56.3,28.9c0.6,0.7,0.9,1.6,0.9,2.5c0,0.8-0.2,1.5-0.6,2.2c-0.4,0.6-1,1.1-1.8,1.5C54,35.4,53,35.6,52,35.6h-6.3V19.9h6
		c1.1,0,2,0.2,2.8,0.5c0.8,0.4,1.3,0.8,1.7,1.5c0.4,0.6,0.6,1.3,0.6,2c0,0.9-0.2,1.7-0.7,2.3c-0.5,0.6-1.1,1-1.9,1.3
		C55,27.7,55.7,28.1,56.3,28.9z M48.3,26.5h3.2c0.8,0,1.5-0.2,2-0.6s0.7-0.9,0.7-1.7c0-0.7-0.2-1.3-0.7-1.7c-0.5-0.4-1.1-0.6-2-0.6
		h-3.2V26.5z M53.8,32.9c0.5-0.4,0.7-1,0.7-1.8s-0.3-1.4-0.8-1.8c-0.5-0.5-1.2-0.7-2.1-0.7h-3.4v4.9h3.5
		C52.7,33.5,53.3,33.3,53.8,32.9z"/>
	<path d="M60.1,21c-0.3-0.3-0.5-0.7-0.5-1.2s0.2-0.9,0.5-1.2c0.3-0.3,0.7-0.5,1.2-0.5s0.8,0.2,1.2,0.5s0.5,0.7,0.5,1.2
		s-0.2,0.9-0.5,1.2c-0.3,0.3-0.7,0.5-1.2,0.5S60.4,21.3,60.1,21z M62.5,23.1v12.5H60V23.1H62.5z"/>
	<path d="M65.9,26c0.5-1,1.2-1.7,2.2-2.2c0.9-0.5,2-0.8,3.2-0.8c1.5,0,2.8,0.4,3.7,1.1c1,0.7,1.7,1.7,2,3.1h-2.8
		c-0.2-0.6-0.6-1.1-1.1-1.4s-1.1-0.5-1.9-0.5c-1.1,0-1.9,0.4-2.5,1.1s-0.9,1.8-0.9,3.1s0.3,2.4,0.9,3.1c0.6,0.8,1.5,1.1,2.5,1.1
		c1.5,0,2.5-0.7,3-2H77c-0.4,1.3-1,2.3-2,3s-2.2,1.1-3.7,1.1c-1.2,0-2.2-0.3-3.2-0.8c-0.9-0.5-1.6-1.3-2.2-2.3
		c-0.5-1-0.8-2.1-0.8-3.4C65.1,28.1,65.3,27,65.9,26z"/>
	<path d="M81.7,35c-0.9-0.5-1.7-1.3-2.2-2.3s-0.8-2.1-0.8-3.4s0.3-2.4,0.8-3.4c0.6-1,1.3-1.7,2.3-2.3c1-0.5,2-0.8,3.2-0.8
		s2.3,0.3,3.2,0.8c1,0.5,1.7,1.3,2.3,2.3c0.6,1,0.8,2.1,0.8,3.4s-0.3,2.4-0.9,3.4S89,34.4,88.1,35c-1,0.5-2.1,0.8-3.3,0.8
		C83.7,35.8,82.7,35.5,81.7,35z M86.8,33.1c0.6-0.3,1.1-0.8,1.4-1.4c0.4-0.6,0.5-1.4,0.5-2.3s-0.2-1.7-0.5-2.3
		c-0.3-0.6-0.8-1.1-1.4-1.4s-1.2-0.5-1.9-0.5c-0.7,0-1.3,0.2-1.8,0.5c-0.6,0.3-1,0.8-1.3,1.4s-0.5,1.4-0.5,2.3c0,1.3,0.3,2.4,1,3.1
		s1.5,1.1,2.6,1.1C85.6,33.6,86.2,33.4,86.8,33.1z"/>
	<path d="M96.5,18.9v16.7h-2.6V18.9H96.5z"/>
	<path d="M102.9,25.2v6.9c0,0.5,0.1,0.8,0.3,1c0.2,0.2,0.6,0.3,1.1,0.3h1.6v2.1h-2c-1.2,0-2.1-0.3-2.7-0.8s-0.9-1.4-0.9-2.6v-6.9
		h-1.5v-2.1h1.5V20h2.6v3.1h3v2.1H102.9z"/>
	<path d="M112.4,23.5c0.6-0.4,1.4-0.5,2.2-0.5v2.7H114c-1,0-1.8,0.3-2.3,0.8s-0.8,1.4-0.8,2.7v6.6h-2.6V23.1h2.6V25
		C111.3,24.3,111.8,23.8,112.4,23.5z"/>
	<path d="M116.9,26c0.5-1,1.2-1.7,2.1-2.2s1.9-0.8,3-0.8c1,0,1.8,0.2,2.6,0.6c0.7,0.4,1.3,0.9,1.8,1.4v-1.8h2.6v12.5h-2.6v-1.9
		c-0.4,0.6-1,1.1-1.8,1.5s-1.6,0.6-2.6,0.6c-1.1,0-2.1-0.3-2.9-0.8c-0.9-0.6-1.6-1.3-2.1-2.3s-0.8-2.1-0.8-3.4S116.4,27,116.9,26z
		 M125.8,27.1c-0.4-0.6-0.8-1.1-1.4-1.4s-1.2-0.5-1.9-0.5c-0.7,0-1.3,0.2-1.9,0.5s-1,0.8-1.4,1.4s-0.5,1.4-0.5,2.2s0.2,1.6,0.5,2.3
		c0.4,0.6,0.8,1.1,1.4,1.5c0.6,0.3,1.2,0.5,1.8,0.5c0.7,0,1.3-0.2,1.9-0.5s1-0.8,1.4-1.5c0.4-0.6,0.5-1.4,0.5-2.2
		S126.2,27.8,125.8,27.1z"/>
	<path d="M132.5,21c-0.3-0.3-0.5-0.7-0.5-1.2s0.2-0.9,0.5-1.2c0.3-0.3,0.7-0.5,1.2-0.5s0.8,0.2,1.2,0.5c0.3,0.3,0.5,0.7,0.5,1.2
		s-0.2,0.9-0.5,1.2c-0.3,0.3-0.7,0.5-1.2,0.5S132.8,21.3,132.5,21z M134.9,23.1v12.5h-2.6V23.1H134.9z"/>
	<path d="M140.9,18.9v16.7h-2.6V18.9H140.9z"/>
	<path d="M146.2,35.3c-0.8-0.4-1.4-0.8-1.8-1.4c-0.5-0.6-0.7-1.3-0.7-2h2.7c0,0.5,0.3,1,0.8,1.3c0.5,0.4,1,0.5,1.7,0.5
		s1.3-0.1,1.7-0.4c0.4-0.3,0.6-0.6,0.6-1.1s-0.2-0.8-0.7-1c-0.4-0.2-1.1-0.5-2.1-0.7c-0.9-0.3-1.7-0.5-2.3-0.7s-1.1-0.6-1.5-1.1
		s-0.6-1.2-0.6-2c0-0.7,0.2-1.3,0.6-1.8s1-1,1.7-1.3s1.6-0.5,2.5-0.5c1.4,0,2.6,0.4,3.4,1.1s1.3,1.7,1.4,2.9H151
		c0-0.6-0.3-1-0.7-1.3s-1-0.5-1.7-0.5s-1.2,0.1-1.6,0.4c-0.4,0.3-0.5,0.6-0.5,1c0,0.3,0.1,0.6,0.4,0.8c0.2,0.2,0.5,0.4,0.9,0.5
		c0.3,0.1,0.9,0.3,1.5,0.5c0.9,0.2,1.6,0.5,2.2,0.7c0.6,0.2,1.1,0.6,1.5,1.1s0.6,1.1,0.7,1.9c0,0.7-0.2,1.3-0.6,1.9
		c-0.4,0.6-0.9,1-1.7,1.3c-0.7,0.3-1.6,0.5-2.5,0.5C147.8,35.8,146.9,35.6,146.2,35.3z"/>
	<path d="M159.4,25.2v6.9c0,0.5,0.1,0.8,0.3,1s0.6,0.3,1.1,0.3h1.6v2.1h-2c-1.2,0-2.1-0.3-2.7-0.8s-0.9-1.4-0.9-2.6v-6.9h-1.5v-2.1
		h1.5V20h2.6v3.1h3v2.1H159.4z"/>
	<path d="M168.8,23.5c0.6-0.4,1.4-0.5,2.2-0.5v2.7h-0.7c-1,0-1.8,0.3-2.3,0.8s-0.8,1.4-0.8,2.7v6.6h-2.6V23.1h2.6V25
		C167.7,24.3,168.2,23.8,168.8,23.5z"/>
	<path d="M173.4,26c0.5-1,1.2-1.7,2.1-2.2c0.9-0.5,1.9-0.8,3-0.8c1,0,1.8,0.2,2.6,0.6c0.7,0.4,1.3,0.9,1.8,1.4v-1.8h2.6v12.5h-2.6
		v-1.9c-0.4,0.6-1,1.1-1.8,1.5s-1.6,0.6-2.6,0.6c-1.1,0-2.1-0.3-2.9-0.8c-0.9-0.6-1.6-1.3-2.1-2.3s-0.8-2.1-0.8-3.4
		S172.8,27,173.4,26z M182.2,27.1c-0.4-0.6-0.8-1.1-1.4-1.4c-0.6-0.3-1.2-0.5-1.9-0.5s-1.3,0.2-1.9,0.5c-0.6,0.3-1,0.8-1.4,1.4
		s-0.5,1.4-0.5,2.2s0.2,1.6,0.5,2.3c0.4,0.6,0.8,1.1,1.4,1.5c0.6,0.3,1.2,0.5,1.8,0.5c0.7,0,1.3-0.2,1.9-0.5c0.6-0.3,1-0.8,1.4-1.5
		c0.4-0.6,0.5-1.4,0.5-2.2S182.6,27.8,182.2,27.1z"/>
	<path d="M193.6,33.3l3.5-10.2h2.7l-4.7,12.5H192l-4.7-12.5h2.8L193.6,33.3z"/>
	<path d="M213.1,30.3h-9.5c0.1,1,0.4,1.8,1.1,2.4c0.7,0.6,1.5,0.9,2.4,0.9c1.4,0,2.4-0.6,2.9-1.7h2.8c-0.4,1.1-1.1,2.1-2,2.8
		c-1,0.7-2.2,1.1-3.7,1.1c-1.2,0-2.3-0.3-3.2-0.8s-1.7-1.3-2.2-2.3s-0.8-2.1-0.8-3.4s0.3-2.4,0.8-3.4s1.3-1.7,2.2-2.2s2-0.8,3.2-0.8
		s2.2,0.3,3.1,0.8c0.9,0.5,1.6,1.2,2.1,2.2c0.5,0.9,0.8,2,0.8,3.2C213.2,29.5,213.2,30,213.1,30.3z M210.5,28.3c0-0.9-0.4-1.7-1-2.3
		c-0.7-0.6-1.5-0.9-2.5-0.9c-0.9,0-1.7,0.3-2.3,0.8c-0.6,0.6-1,1.3-1.1,2.3h6.9L210.5,28.3L210.5,28.3z"/>
	<path d="M218.3,18.9v16.7h-2.6V18.9H218.3z"/>
</g>
<text transform="matrix(1 0 0 1 43.4467 169.6168)" style="font-family:'Poppins-Medium'; font-size:24px;">Bicoltrailstravel</text>
</svg>
